<?xml version="1.0" encoding="utf-8"?>
<!-- Generator: Adobe Illustrator 14.0.0, SVG Export Plug-In . SVG Version: 6.00 Build 43363)  -->
<!DOCTYPE svg PUBLIC "-//W3C//DTD SVG 1.1//EN" "http://www.w3.org/Graphics/SVG/1.1/DTD/svg11.dtd">
<svg version="1.1" id="Layer_1" xmlns="http://www.w3.org/2000/svg" xmlns:xlink="http://www.w3.org/1999/xlink" x="0px" y="0px" width="60px" height="40px" viewBox="0 0 60 40">
	<path d="M28.382,9.545c-6.205,0-11.235,4.718-11.235,10.537s5.03,10.537,11.235,10.537 c6.205,0,11.235-4.719,11.235-10.537S34.587,9.545,28.382,9.545z M30.192,26.572l-1.813-4.412l-1.802,4.414 c-3.031-0.76-5.27-3.375-5.27-6.492c0-0.879,0.183-1.719,0.507-2.488l4.93,1.57l-2.416-4.586c1.148-0.764,2.544-1.217,4.053-1.217 c1.6,0,3.071,0.51,4.256,1.361l-2.33,4.447l4.672-1.498c0.304,0.748,0.477,1.559,0.477,2.41 C35.457,23.197,33.221,25.811,30.192,26.572z"></path>
	<path d="M28.382,4.09C11.727,4.09,0.302,19.053,0,21.102C0.302,22.85,10.73,35.91,29.018,35.91 S59.396,21.924,60,20.039C59.396,18.154,44.887,4.09,28.382,4.09z M28.867,31.449c-14.509,0-25.239-8.902-26.146-10.348 C3.627,19.203,14.66,8.629,28.867,8.629s26.448,9.461,27.808,11.453C55.314,21.924,43.375,31.449,28.867,31.449z"></path>
</svg>
