<?xml version="1.0" encoding="utf-8"?>
<!-- Generator: Adobe Illustrator 14.0.0, SVG Export Plug-In . SVG Version: 6.00 Build 43363)  -->
<!DOCTYPE svg PUBLIC "-//W3C//DTD SVG 1.1//EN" "http://www.w3.org/Graphics/SVG/1.1/DTD/svg11.dtd">
<svg version="1.1" id="Layer_1" xmlns="http://www.w3.org/2000/svg" xmlns:xlink="http://www.w3.org/1999/xlink" x="0px" y="0px" width="60px" height="60px" viewBox="0 0 60 40">
	<path d="M 28.432237,0.00451 C 27.79947,0.04784 27.184372,0.14582 26.562658,0.21696 h -0.04211 l -1.487059,8.115482 c -2.424028,0.551991 -4.704254,1.488802 -6.755903,2.761822 L 11.602497,6.292954 C 9.799154,7.69298 8.158152,9.325821 6.716412,11.094264 l 4.631362,6.755903 c -1.406165,2.148943 -2.463682,4.60284 -3.05925,7.180573 -7.1e-5,0.01228 -7.1e-5,0.0404 0,0.0424 L 0.21543,26.347825 C 0.067865,27.553342 0.003,28.799226 0.003,30.044397 c 0,1.018813 0.02813,2.023998 0.127421,3.016745 l 8.073094,1.444632 c 0.574136,2.803497 1.664849,5.421676 3.186651,7.733198 l -4.80131,6.585955 c 1.375068,1.707083 2.962551,3.261323 4.67375,4.631353 l 6.798291,-4.67374 c 2.375975,1.51566 5.028302,2.57844 7.903147,3.10175 L 27.238688,59.915 C 28.144519,59.9974 29.073485,60 30.00059,60 c 1.308832,0 2.559115,-0.0496 3.824053,-0.21245 l 1.529684,-8.20064 c 2.729498,-0.67928 5.293722,-1.8577 7.520468,-3.441655 l 6.543172,4.758915 c 1.696898,-1.44368 3.248609,-3.1031 4.588974,-4.886475 l -4.758922,-6.883497 c 1.288827,-2.225756 2.181705,-4.681673 2.634303,-7.308132 l 8.030706,-1.274685 c 0.07066,-0.83801 0.08436,-1.650747 0.08436,-2.506902 0,-1.487772 -0.173018,-2.946506 -0.382504,-4.376243 L 51.457022,24.181098 C 50.817719,21.820415 49.76876,19.617873 48.440357,17.637531 l 4.80131,-6.585956 C 51.75338,9.231515 50.055689,7.550184 48.185635,6.122706 l -6.92585,4.758922 C 39.269222,9.704357 37.127172,8.8011 34.801389,8.289753 L 33.526744,0.216659 C 32.366586,0.080178 31.196802,0.004213 30.000198,0.004213 c -0.323478,0 -0.656298,-0.0095 -0.977376,0 -0.156458,0.005 -0.311344,-0.0095 -0.467295,0 -0.04211,0.0028 -0.08565,-0.0028 -0.127833,0 z m 1.104777,20.64999 c 0.155317,-0.0084 0.310275,0 0.467454,0 5.029491,0 9.135166,4.105675 9.135166,9.135165 0,5.029491 -4.105675,9.092779 -9.135166,9.092779 -5.029491,0 -9.092777,-4.063288 -9.092777,-9.092779 0,-4.87222 3.813356,-8.891138 8.625323,-9.135165 z"></path>
</svg>
