<?xml version="1.0" encoding="utf-8"?>
<!-- Generator: Adobe Illustrator 14.0.0, SVG Export Plug-In . SVG Version: 6.00 Build 43363)  -->
<!DOCTYPE svg PUBLIC "-//W3C//DTD SVG 1.1//EN" "http://www.w3.org/Graphics/SVG/1.1/DTD/svg11.dtd">
<svg version="1.1" id="Layer_1" xmlns="http://www.w3.org/2000/svg" xmlns:xlink="http://www.w3.org/1999/xlink" x="0px" y="0px"
	 width="60px" height="40px" viewBox="0 0 60 40" enable-background="new 0 0 60 40" xml:space="preserve">
<g>
	<path d="M47.084,9.505l-2.613,2.614c6.687,2.912,11.391,6.771,12.204,7.963c-1.36,1.842-13.3,11.367-27.808,11.367
		c-1.211,0-2.393-0.067-3.547-0.182l-3.864,3.864c2.347,0.489,4.866,0.778,7.562,0.778c18.289,0,30.378-13.986,30.982-15.871
		C59.647,18.938,54.549,13.686,47.084,9.505z"/>
	<path d="M47.94,0.898c-0.781-0.781-2.047-0.781-2.828,0l-5.287,5.288C36.239,4.913,32.369,4.09,28.382,4.09
		C11.727,4.09,0.302,19.053,0,21.102c0.202,1.169,4.942,7.389,13.523,11.387l-3.786,3.785c-0.781,0.781-0.781,2.047,0,2.828
		c0.391,0.391,0.902,0.586,1.414,0.586s1.024-0.195,1.414-0.586L47.94,3.727C48.722,2.946,48.722,1.68,47.94,0.898z M2.721,21.102
		C3.627,19.203,14.66,8.629,28.867,8.629c2.635,0,5.199,0.33,7.642,0.873l-1.854,1.855c-1.791-1.139-3.944-1.813-6.272-1.813
		c-6.205,0-11.235,4.719-11.235,10.537c0,2.424,0.887,4.646,2.354,6.428l-2.853,2.853C8.655,26.64,3.347,22.099,2.721,21.102z
		 M22.39,23.621c-0.682-1.025-1.083-2.233-1.083-3.539c0-0.879,0.183-1.719,0.507-2.488l4.93,1.57l-2.416-4.586
		c1.148-0.764,2.544-1.217,4.053-1.217c1.243,0,2.404,0.314,3.418,0.852L22.39,23.621z"/>
	<path d="M30.192,26.572l-0.051-0.125l-3.966,3.966c0.714,0.134,1.451,0.206,2.207,0.206c6.205,0,11.235-4.719,11.235-10.537
		c0-0.941-0.145-1.85-0.392-2.719l-3.875,3.875C34.876,23.829,32.837,25.907,30.192,26.572z"/>
</g>
</svg>
