<?xml version="1.0" encoding="utf-8"?>
<!-- Generator: Adobe Illustrator 14.0.0, SVG Export Plug-In . SVG Version: 6.00 Build 43363)  -->
<!DOCTYPE svg PUBLIC "-//W3C//DTD SVG 1.1//EN" "http://www.w3.org/Graphics/SVG/1.1/DTD/svg11.dtd">
<svg version="1.1" id="Layer_1" xmlns="http://www.w3.org/2000/svg" xmlns:xlink="http://www.w3.org/1999/xlink" x="0px" y="0px"
	 width="60px" height="40px" viewBox="0 0 60 40" enable-background="new 0 0 60 40" xml:space="preserve">
<path d="M-46.854-1.807c-4.368,0-7.91,3.119-7.91,6.969c0,3.847,3.542,6.967,7.91,6.967c4.37,0,7.911-3.12,7.911-6.967
	C-38.943,1.313-42.484-1.807-46.854-1.807z M-44.254,5.607c-0.19,0.897-0.941,1.617-1.915,1.85l-0.685,3.929l-0.684-3.929
	c-0.952-0.229-1.691-0.922-1.901-1.793l-3.892-0.648l3.99-0.665c0.287-0.711,0.939-1.264,1.755-1.474l0.731-3.625l0.732,3.625
	c0.85,0.219,1.524,0.811,1.791,1.566l3.747,0.66L-44.254,5.607z"/>
<ellipse cx="-61.037" cy="31.16" rx="9.292" ry="8.715"/>
<ellipse fill="#FFFF00" cx="-61.037" cy="31.16" rx="5.852" ry="5.559"/>
<polygon fill="#0000FF" points="-67.414,28.801 -67.414,33.207 -62.037,30.996 "/>
<polygon fill="#0000FF" points="-54.66,33.207 -54.66,28.801 -60.037,31.012 "/>
<polygon fill="#0000FF" points="-63.24,37.381 -58.833,37.381 -61.044,32.004 "/>
<ellipse cx="-54.764" cy="-37.802" rx="9.292" ry="8.715"/>
<ellipse fill="#FFFF00" cx="-54.764" cy="-37.802" rx="5.852" ry="5.559"/>
<polygon fill="#0000FF" points="-59.679,-43.361 -61.882,-39.545 -56.12,-38.771 "/>
<polygon fill="#0000FF" points="-47.396,-39.697 -49.599,-43.512 -53.15,-38.91 "/>
<polygon fill="#0000FF" points="-56.967,-31.123 -52.561,-31.123 -54.772,-36.5 "/>
<g>
	<path d="M-75.554-14.458c-1.128,1.661-4.063,4.875-4.063,4.875l1.493-0.044c4.287,0.027,6.805-9.135,13.784-13.117
		c2.034-1.161,6.177-2.124,9.182-2.131c0.544-0.001,6.458-0.181,13.5,1.792c3.361,0.977,8.341,3.889,12.333,7.173
		C-34.89-9.56-42.07-7.887-50.45-7.625c-7.95,0.067-13.801-1.791-19.455-2.504c-3.937-0.496-5.884,0.145-5.948,0.146
		c0.179,0.002,7.735,4.774,24.11,5.587c11.877,0,19.313-5.188,19.313-5.188c4.173-2.635,4.97-4.063,6.079-5.421
		c2.5,0.25,3.963-1.168,5.421-3.329c-2.25,0.833-3.5,0.667-5.055-0.274c2.096-0.395,2.68-1.101,3.43-2.434
		c-1.833,0.75-3.135,1.344-6.174,0.307c1.768-0.682,2.73-1.209,3.574-2.882c-0.852,0.341-0.332,1.521-6.483,0.991
		c-3.507-0.303-6.611-2.416-10.604-3.458c-3.577-0.997-7.333-2.583-16-1.75C-66.222-27.193-71.721-20.333-75.554-14.458z"/>
</g>
<g>
	<path fill="#FF0000" d="M28.382,9.545c-6.205,0-11.235,4.718-11.235,10.537s5.03,10.537,11.235,10.537
		c6.205,0,11.235-4.719,11.235-10.537S34.587,9.545,28.382,9.545z M30.192,26.572l-1.813-4.412l-1.802,4.414
		c-3.031-0.76-5.27-3.375-5.27-6.492c0-0.879,0.183-1.719,0.507-2.488l4.93,1.57l-2.416-4.586c1.148-0.764,2.544-1.217,4.053-1.217
		c1.6,0,3.071,0.51,4.256,1.361l-2.33,4.447l4.672-1.498c0.304,0.748,0.477,1.559,0.477,2.41
		C35.457,23.197,33.221,25.811,30.192,26.572z"/>
	<path fill="#FF0000" d="M28.382,4.09C11.727,4.09,0.302,19.053,0,21.102C0.302,22.85,10.73,35.91,29.018,35.91
		S59.396,21.924,60,20.039C59.396,18.154,44.887,4.09,28.382,4.09z M28.867,31.449c-14.509,0-25.239-8.902-26.146-10.348
		C3.627,19.203,14.66,8.629,28.867,8.629s26.448,9.461,27.808,11.453C55.314,21.924,43.375,31.449,28.867,31.449z"/>
</g>
<path fill="#0000FF" d="M-31.29,48.875c13.65,0,25.65,11.633,26.15,13.191c-0.5,1.559-10.5,13.126-25.625,13.126
	s-23.75-10.802-24-12.247C-54.515,61.25-45.065,48.875-31.29,48.875z"/>
<path fill="#00FF00" d="M-30.89,52.629c11.75,0,21.875,7.824,23,9.473c-1.125,1.523-11,9.402-23,9.402s-20.875-7.363-21.625-8.559
	C-51.765,61.375-42.64,52.629-30.89,52.629z"/>
<ellipse cx="-74.017" cy="10.127" rx="9.292" ry="8.715"/>
<ellipse fill="#FFFF00" cx="-74.017" cy="10.127" rx="5.852" ry="5.559"/>
<polygon fill="#0000FF" points="-78.08,4.229 -80.912,7.604 -75.372,9.367 "/>
<polygon fill="#0000FF" points="-66.895,7.599 -69.727,4.224 -72.424,9.373 "/>
<polygon fill="#0000FF" points="-76.215,17.223 -71.81,17.223 -74.02,11.846 "/>
</svg>
